<svg width="20" height="14" viewBox="0 0 20 14" fill="none" xmlns="http://www.w3.org/2000/svg">
<path d="M9.99999 0.333334C7.34784 0.333334 4.80431 1.3869 2.92893 3.26227C1.05357 5.13762 9.00861e-07 7.68118 9.00861e-07 10.3333C-0.00044079 11.3656 0.161541 12.3914 0.480001 13.3733C0.506406 13.4576 0.559966 13.5308 0.632323 13.5814C0.70468 13.6321 0.791768 13.6574 0.88 13.6533H19.12C19.2082 13.6574 19.2953 13.6321 19.3677 13.5814C19.44 13.5308 19.4936 13.4576 19.52 13.3733C19.8385 12.3914 20.0004 11.3656 20 10.3333C20 7.68118 18.9464 5.13762 17.0711 3.26227C15.1957 1.3869 12.6522 0.333334 9.99999 0.333334Z" fill="#9BA1B2" fill-opacity="0.3"/>
<path d="M14.32 5.45336L9.43999 9.73334H9.39998C9.32046 9.81115 9.25804 9.90471 9.21672 10.008C9.17538 10.1113 9.15606 10.2221 9.15998 10.3334C9.16976 10.553 9.2614 10.761 9.41687 10.9165C9.57234 11.0719 9.78035 11.1636 9.99999 11.1733C10.1151 11.1781 10.2297 11.1551 10.3341 11.1064C10.4385 11.0577 10.5297 10.9846 10.6 10.8934L14.88 6.01336C14.9258 5.97896 14.9638 5.93511 14.9912 5.88482C15.0186 5.8345 15.0349 5.77887 15.039 5.7217C15.0431 5.66453 15.0348 5.60718 15.0147 5.55347C14.9947 5.49979 14.9633 5.45101 14.9228 5.41049C14.8823 5.36997 14.8336 5.33864 14.7798 5.31859C14.7262 5.29855 14.6688 5.29029 14.6116 5.29434C14.5545 5.29842 14.4988 5.31472 14.4485 5.34213C14.3982 5.36957 14.3544 5.40751 14.32 5.45336Z" fill="#9BA1B2"/>
<path d="M9.99999 0.333334C7.34784 0.333334 4.80431 1.3869 2.92893 3.26227C1.05357 5.13762 9.00861e-07 7.68118 9.00861e-07 10.3333C-0.00044079 11.3656 0.161541 12.3914 0.480001 13.3733C0.506406 13.4576 0.559966 13.5308 0.632323 13.5814C0.70468 13.6321 0.791768 13.6574 0.88 13.6533H19.12C19.2082 13.6574 19.2953 13.6321 19.3677 13.5814C19.44 13.5308 19.4936 13.4576 19.52 13.3733C19.8385 12.3914 20.0004 11.3656 20 10.3333C20 7.68118 18.9464 5.13762 17.0711 3.26227C15.1957 1.3869 12.6522 0.333334 9.99999 0.333334ZM17.92 10.7333H19.12C19.1146 11.4516 19.0068 12.1655 18.8 12.8533H1.2C0.993161 12.1655 0.885411 11.4516 0.88 10.7333H2.08C2.18609 10.7333 2.28783 10.6912 2.36284 10.6162C2.43786 10.5412 2.48 10.4394 2.48 10.3333C2.48 10.2272 2.43786 10.1255 2.36284 10.0505C2.28783 9.97547 2.18609 9.93332 2.08 9.93332H0.84C0.904378 8.60582 1.2594 7.30862 1.88 6.13334L2.92001 6.73333H3.16001C3.2325 6.73578 3.30429 6.71846 3.36772 6.68322C3.43112 6.648 3.48376 6.59618 3.51999 6.53334C3.56616 6.43653 3.57538 6.32619 3.54591 6.22306C3.51645 6.11994 3.45033 6.03115 3.35999 5.97334L2.28 5.41334C3.00296 4.291 3.95766 3.3363 5.08001 2.61333L5.67999 3.69333C5.71913 3.75351 5.77241 3.80319 5.83514 3.83804C5.89791 3.87291 5.96824 3.89188 6.04 3.89334H6.23999C6.29538 3.86462 6.34402 3.82445 6.3827 3.77551C6.42138 3.72655 6.44922 3.66994 6.46435 3.60941C6.47948 3.54889 6.48156 3.48586 6.47048 3.42445C6.45937 3.36307 6.43537 3.30473 6.39999 3.25334L5.8 2.21333C6.97528 1.59273 8.27249 1.23771 9.59999 1.17333V2.41333C9.59999 2.51942 9.64213 2.62116 9.71715 2.69618C9.79217 2.77119 9.8939 2.81333 9.99999 2.81333C10.1061 2.81333 10.2078 2.77119 10.2828 2.69618C10.3579 2.62116 10.4 2.51942 10.4 2.41333V1.17333C11.7275 1.23771 13.0247 1.59273 14.2 2.21333L13.6 3.25334C13.5419 3.35418 13.5261 3.47392 13.5561 3.58637C13.5861 3.69882 13.6594 3.7948 13.76 3.85333H13.96C14.0318 3.85189 14.1021 3.83292 14.1648 3.79805C14.2276 3.76318 14.2808 3.7135 14.32 3.65334L14.92 2.57333C16.0423 3.29631 16.997 4.25098 17.72 5.37333L16.64 5.97334C16.5497 6.03115 16.4835 6.11994 16.4541 6.22306C16.4246 6.32619 16.4338 6.43653 16.48 6.53334C16.5162 6.59618 16.5689 6.648 16.6323 6.68322C16.6957 6.71846 16.7675 6.73578 16.84 6.73333H17.08L18.12 6.13334C18.7406 7.30862 19.0956 8.60582 19.16 9.93332H17.92C17.8642 9.92773 17.8078 9.93391 17.7546 9.95149C17.7014 9.96905 17.6524 9.99763 17.6109 10.0354C17.5694 10.0731 17.5363 10.1191 17.5138 10.1704C17.4912 10.2218 17.4797 10.2773 17.48 10.3333C17.49 10.443 17.5407 10.5449 17.6222 10.6189C17.7037 10.693 17.8099 10.7338 17.92 10.7333Z" fill="#9BA1B2"/>
</svg>