<svg width="20" height="17" viewBox="0 0 20 17" fill="none" xmlns="http://www.w3.org/2000/svg">
<path d="M16.64 0.111418C16.0908 0.103514 15.5518 0.259655 15.0918 0.559861C14.6318 0.860066 14.2719 1.29068 14.0581 1.79661C13.8443 2.30253 13.7862 2.86075 13.8914 3.39984C13.9967 3.93893 14.2603 4.43436 14.6487 4.82274C15.0371 5.21113 15.5325 5.47478 16.0716 5.58002C16.6107 5.68522 17.1689 5.62719 17.6749 5.41336C18.1808 5.19953 18.6114 4.83961 18.9116 4.37966C19.2118 3.91968 19.3679 3.38062 19.36 2.83141C19.3654 2.47273 19.2988 2.11661 19.164 1.78417C19.0292 1.45173 18.8291 1.14973 18.5754 0.896069C18.3217 0.642409 18.0197 0.442258 17.6873 0.307475C17.3549 0.172693 16.9987 0.106023 16.64 0.111418Z" fill="#9BA1B2" fill-opacity="0.3"/>
<path d="M19.72 16.3111H18.32V7.55115C18.3204 7.51073 18.3121 7.47074 18.2956 7.43388C18.2791 7.39699 18.2548 7.36413 18.2244 7.33755C18.194 7.31094 18.1582 7.29122 18.1195 7.27976C18.0807 7.2683 18.04 7.26535 18 7.27113H15.24C15.1657 7.27113 15.0945 7.30063 15.042 7.35314C14.9895 7.40566 14.96 7.47686 14.96 7.55115V16.3111H13.92V10.5911C13.9206 10.5128 13.8925 10.4369 13.8408 10.3779C13.7892 10.3189 13.7178 10.2809 13.64 10.2711H10.84C10.7551 10.2711 10.6738 10.3048 10.6137 10.3648C10.5537 10.4249 10.52 10.5063 10.52 10.5911V16.3111H9.52V10.1111C9.51022 10.0334 9.47222 9.96191 9.41325 9.9103C9.35425 9.85869 9.27838 9.8305 9.19999 9.83114H6.44002C6.36164 9.8305 6.28577 9.85869 6.22677 9.9103C6.1678 9.96191 6.1298 10.0334 6.12002 10.1111V16.3111H5.12002V11.9111C5.12002 11.8263 5.08628 11.7449 5.02627 11.6849C4.96626 11.6248 4.88488 11.5911 4.80001 11.5911H2.00001C1.92225 11.6009 1.85079 11.6389 1.79918 11.6979C1.74757 11.7569 1.7194 11.8328 1.72001 11.9111V16.3111H0.320014C0.280035 16.3054 0.23928 16.3083 0.200547 16.3198C0.161813 16.3312 0.126018 16.3509 0.0956187 16.3775C0.0652192 16.4041 0.0409348 16.437 0.0244325 16.4739C0.00792986 16.5107 -0.00039984 16.5507 1.47502e-05 16.5911C1.47502e-05 16.676 0.0337289 16.7574 0.0937405 16.8174C0.153752 16.8774 0.235145 16.9111 0.320014 16.9111H19.68C19.7649 16.9111 19.8462 16.8774 19.9063 16.8174C19.9663 16.7574 20 16.676 20 16.5911C20 16.5169 19.9705 16.4456 19.918 16.3932C19.8655 16.3406 19.7943 16.3111 19.72 16.3111Z" fill="#9BA1B2" fill-opacity="0.3"/>
<path d="M16.64 0.111418C16.0908 0.103514 15.5518 0.259655 15.0918 0.559861C14.6318 0.860066 14.2719 1.29068 14.0581 1.79661C13.8443 2.30253 13.7862 2.86075 13.8914 3.39984C13.9967 3.93893 14.2603 4.43436 14.6487 4.82274C15.0371 5.21113 15.5325 5.47478 16.0716 5.58002C16.6107 5.68522 17.1689 5.62719 17.6749 5.41336C18.1808 5.19953 18.6114 4.83961 18.9116 4.37966C19.2118 3.91968 19.3679 3.38062 19.36 2.83141C19.3654 2.47273 19.2988 2.11661 19.164 1.78417C19.0292 1.45173 18.8291 1.14973 18.5754 0.896069C18.3217 0.642409 18.0197 0.442258 17.6873 0.307475C17.3549 0.172693 16.9987 0.106023 16.64 0.111418ZM16.64 4.99142C16.2095 4.99931 15.7865 4.87835 15.4252 4.64409C15.0639 4.40983 14.7809 4.07293 14.6125 3.67665C14.4441 3.28037 14.3979 2.8428 14.48 2.42011C14.5621 1.99742 14.7686 1.6089 15.073 1.30443C15.3775 0.99996 15.766 0.793438 16.1887 0.711373C16.6114 0.629309 17.049 0.675448 17.4453 0.843868C17.8416 1.01229 18.1785 1.2953 18.4127 1.65658C18.647 2.01785 18.7679 2.4409 18.76 2.87141C18.76 3.43367 18.5367 3.9729 18.1391 4.37049C17.7415 4.76804 17.2023 4.99142 16.64 4.99142Z" fill="#9BA1B2"/>
<path d="M17.48 3.27112C17.4809 3.21521 17.4671 3.16004 17.44 3.11112C17.4 3.11112 17.4 3.03112 17.36 2.99112L17.28 2.87112C17.2614 2.84628 17.2373 2.82612 17.2095 2.81223C17.1817 2.79835 17.1511 2.79112 17.1201 2.79112L17 2.71112L16.84 2.63112H16.4C16.4 2.59112 16.36 2.59112 16.36 2.55112V2.15112C16.3832 2.13061 16.3975 2.10194 16.4 2.07112L16.48 1.99112H17.2V1.51112H16.84V1.07112H16.36V1.43112L16.2001 1.51112L16.0401 1.63112L15.9601 1.75112C15.9352 1.76975 15.915 1.79391 15.9012 1.82168C15.8873 1.84945 15.8801 1.88007 15.8801 1.91112L15.8 2.07112V2.43112L15.8801 2.55112C15.891 2.61097 15.9187 2.66647 15.9601 2.71112C15.9601 2.73234 15.9685 2.75269 15.9835 2.76769C15.9985 2.78269 16.0188 2.79112 16.0401 2.79112L16.16 2.91112L16.32 2.99112L16.44 3.07112H16.8801V3.43112H16.84L16.76 3.51112H15.92L15.8 3.43112V4.0711H16.52V4.43112H16.9601V4.03112H17L17.16 3.95112L17.32 3.87111L17.4 3.75113L17.52 3.59113V3.63111C17.5524 3.56969 17.5663 3.50024 17.5601 3.43112C17.5491 3.37126 17.5214 3.31576 17.48 3.27112Z" fill="#9BA1B2"/>
<path d="M15.3201 5.9511C15.2659 5.88917 15.19 5.85043 15.1081 5.84301C15.0262 5.83555 14.9445 5.85994 14.8801 5.91112L11.8001 8.35111L7.8801 6.7111C7.76008 6.67111 7.64009 6.67111 7.60008 6.75111L3.3601 9.75112C3.3023 9.79806 3.2627 9.86368 3.2481 9.93669C3.23349 10.0097 3.24481 10.0855 3.28009 10.1511C3.29735 10.2002 3.33009 10.2423 3.37337 10.2712C3.41668 10.3 3.46815 10.3141 3.5201 10.3111C3.55115 10.3111 3.58176 10.3039 3.60954 10.29C3.6373 10.2761 3.66145 10.256 3.6801 10.2311L7.8001 7.31113L11.7601 8.95111C11.8401 8.99112 12.0001 8.99112 12.0401 8.91112L15.2401 6.39112C15.3011 6.33753 15.3422 6.26492 15.3567 6.18506C15.3712 6.10516 15.3583 6.02273 15.3201 5.9511Z" fill="#9BA1B2"/>
<path d="M19.72 16.3111H18.32V7.55112C18.3204 7.5107 18.3121 7.47071 18.2956 7.43385C18.2791 7.39696 18.2548 7.3641 18.2244 7.33752C18.194 7.31091 18.1582 7.29119 18.1195 7.27973C18.0807 7.26827 18.04 7.26532 18 7.27109H15.24C15.1657 7.27109 15.0945 7.3006 15.042 7.35311C14.9895 7.40563 14.96 7.47683 14.96 7.55112V16.3111H13.92V10.5911C13.9206 10.5127 13.8925 10.4369 13.8408 10.3779C13.7892 10.3189 13.7178 10.2809 13.64 10.2711H10.84C10.7551 10.2711 10.6738 10.3048 10.6137 10.3648C10.5537 10.4248 10.52 10.5062 10.52 10.5911V16.3111H9.52V10.1111C9.51022 10.0333 9.47222 9.96188 9.41325 9.91027C9.35425 9.85866 9.27838 9.83047 9.19999 9.83111H6.44002C6.36164 9.83047 6.28577 9.85866 6.22677 9.91027C6.1678 9.96188 6.1298 10.0333 6.12002 10.1111V16.3111H5.12002V11.9111C5.12002 11.8262 5.08628 11.7448 5.02627 11.6848C4.96626 11.6248 4.88488 11.5911 4.80001 11.5911H2.00001C1.92225 11.6009 1.85079 11.6389 1.79918 11.6979C1.74757 11.7569 1.7194 11.8327 1.72001 11.9111V16.3111H0.320014C0.280035 16.3053 0.23928 16.3083 0.200547 16.3197C0.161813 16.3312 0.126018 16.3509 0.0956187 16.3775C0.0652192 16.4041 0.0409348 16.437 0.0244325 16.4738C0.00792986 16.5107 -0.00039984 16.5507 1.47502e-05 16.5911C1.47502e-05 16.676 0.0337289 16.7573 0.0937405 16.8174C0.153752 16.8774 0.235145 16.9111 0.320014 16.9111H19.68C19.7649 16.9111 19.8462 16.8774 19.9063 16.8174C19.9663 16.7573 20 16.676 20 16.5911C20 16.5168 19.9705 16.4456 19.918 16.3931C19.8655 16.3406 19.7943 16.3111 19.72 16.3111ZM4.48 16.3111H2.32001V12.1911H4.48V16.3111ZM8.92001 16.3111H6.72001V10.4311H8.92001V16.3111ZM13.32 16.3111H11.12V10.8711H13.32V16.3111ZM17.72 16.3111H15.56V7.87109H17.72V16.3111Z" fill="#9BA1B2"/>
</svg>