<svg width="20" height="20" viewBox="0 0 20 20" fill="none" xmlns="http://www.w3.org/2000/svg">
<path d="M15.6666 9.24544V3.33109C15.6666 3.3016 15.6628 3.27223 15.655 3.24376C15.6524 3.23442 15.6473 3.22642 15.644 3.21709C15.6381 3.19882 15.6306 3.18109 15.6217 3.16409C15.616 3.15476 15.6082 3.14709 15.602 3.13809C15.592 3.12301 15.5809 3.10874 15.5686 3.09542C15.5613 3.08809 15.552 3.08276 15.544 3.07609C15.5309 3.06378 15.5166 3.05262 15.5017 3.04276H15.4982L10.165 0.0427605C10.1151 0.0147285 10.0589 0 10.0017 0C9.94445 0 9.88817 0.0147285 9.83834 0.0427605L4.505 3.04276H4.50163C4.48661 3.05262 4.47245 3.06378 4.45931 3.07609C4.45133 3.08276 4.44199 3.08809 4.43465 3.09542C4.42244 3.10874 4.41126 3.12301 4.40132 3.13809C4.39497 3.14709 4.38733 3.15476 4.38165 3.16409C4.37269 3.18109 4.36523 3.19882 4.3593 3.21709C4.35597 3.22642 4.35098 3.23442 4.34833 3.24376C4.33946 3.27208 4.33442 3.30145 4.33331 3.33109V9.24544C4.33336 9.30389 4.3488 9.36128 4.37807 9.41193C4.4073 9.46249 4.44937 9.50451 4.49997 9.53374L9.8333 12.6194C9.85335 12.6303 9.87443 12.639 9.89632 12.6454C9.90264 12.6474 9.90831 12.6511 9.91433 12.6528C9.97043 12.6679 10.0295 12.6679 10.0856 12.6528C10.0916 12.6511 10.0973 12.6474 10.1036 12.6454C10.1255 12.639 10.1466 12.6303 10.1667 12.6194L15.5 9.53374C15.5506 9.50451 15.5927 9.46249 15.6218 9.41193C15.6512 9.36128 15.6666 9.30389 15.6666 9.24544Z" fill="#9BA1B2" fill-opacity="0.3"/>
<path d="M18.6666 3.9974C18.313 3.9974 17.9738 4.1379 17.7238 4.38793C17.4738 4.63795 17.3333 4.97711 17.3333 5.33073V9.70372C17.111 9.64634 16.8772 9.65163 16.6577 9.71896C16.4383 9.78633 16.2417 9.91317 16.09 10.0854L13.7884 12.6431C13.0781 13.0567 12.4823 13.6411 12.055 14.3434C11.6277 15.0455 11.3824 15.8431 11.3413 16.6641H11.3333V19.9974H12V16.9061C12.0016 16.1522 12.2026 15.4121 12.5823 14.7607C12.9621 14.1095 13.5073 13.5702 14.1626 13.1974C14.1944 13.1799 14.2232 13.1574 14.2477 13.1308L16.5853 10.5307C16.6401 10.4696 16.7068 10.4204 16.7813 10.386C16.8558 10.3516 16.9366 10.3328 17.0186 10.3307C17.1008 10.329 17.1825 10.3439 17.2588 10.3744C17.335 10.4048 17.4045 10.4503 17.4629 10.5081C17.5733 10.618 17.6369 10.7663 17.6406 10.9221C17.6444 11.0778 17.5878 11.2289 17.483 11.3441L14.7533 14.3485L15.2466 14.7974L17.9776 11.7934C18.1856 11.5646 18.3026 11.2676 18.3066 10.9585C18.3108 10.6493 18.2017 10.3494 18 10.1151V5.33073C18 5.15392 18.0703 4.98436 18.1952 4.85935C18.3202 4.73429 18.4898 4.66406 18.6666 4.66406C18.8434 4.66406 19.013 4.73429 19.1381 4.85935C19.263 4.98436 19.3333 5.15392 19.3333 5.33073V11.6044C19.3328 12.0236 19.2199 12.4349 19.0066 12.7958L16.04 18.1696C16.0133 18.2191 15.9996 18.2746 16 18.3307V19.9974H16.6666V18.4167L19.5856 13.1257C19.8567 12.6646 19.9998 12.1393 20 11.6044V5.33073C20 4.97711 19.8594 4.63795 19.6094 4.38793C19.3594 4.1379 19.0202 3.9974 18.6666 3.9974Z" fill="#9BA1B2"/>
<path d="M15.6666 9.24544V3.33109C15.6666 3.3016 15.6628 3.27223 15.655 3.24376C15.6524 3.23442 15.6473 3.22642 15.644 3.21709C15.6381 3.19882 15.6306 3.18109 15.6217 3.16409C15.616 3.15476 15.6082 3.14709 15.602 3.13809C15.592 3.12301 15.5809 3.10874 15.5686 3.09542C15.5613 3.08809 15.552 3.08276 15.544 3.07609C15.5309 3.06378 15.5166 3.05262 15.5017 3.04276H15.4982L10.165 0.0427605C10.1151 0.0147285 10.0589 0 10.0017 0C9.94445 0 9.88817 0.0147285 9.83834 0.0427605L4.505 3.04276H4.50163C4.48661 3.05262 4.47245 3.06378 4.45931 3.07609C4.45133 3.08276 4.44199 3.08809 4.43465 3.09542C4.42244 3.10874 4.41126 3.12301 4.40132 3.13809C4.39497 3.14709 4.38733 3.15476 4.38165 3.16409C4.37269 3.18109 4.36523 3.19882 4.3593 3.21709C4.35597 3.22642 4.35098 3.23442 4.34833 3.24376C4.33946 3.27208 4.33442 3.30145 4.33331 3.33109V9.24544C4.33336 9.30389 4.3488 9.36128 4.37807 9.41193C4.4073 9.46249 4.44937 9.50451 4.49997 9.53374L9.8333 12.6194C9.85335 12.6303 9.87443 12.639 9.89632 12.6454C9.90264 12.6474 9.90831 12.6511 9.91433 12.6528C9.97043 12.6679 10.0295 12.6679 10.0856 12.6528C10.0916 12.6511 10.0973 12.6474 10.1036 12.6454C10.1255 12.639 10.1466 12.6303 10.1667 12.6194L15.5 9.53374C15.5506 9.50451 15.5927 9.46249 15.6218 9.41193C15.6512 9.36128 15.6666 9.30389 15.6666 9.24544ZM10 0.713425L11.8386 1.74676L7.18532 4.36442L5.34665 3.33109L10 0.713425ZM9.66665 11.7534L4.99998 9.05344V3.9011L9.66665 6.52608V11.7534ZM10 5.94876L7.86667 4.74778L12.5183 2.13109L14.6533 3.33109L10 5.94876ZM15 9.0531L10.3333 11.7531V6.52608L15 3.9011V9.0531Z" fill="#9BA1B2"/>
<path d="M14.3334 8.33073H13.6667V8.99735H14.3334V8.33073Z" fill="#9BA1B2"/>
<path d="M13 8.9974H12.3333V9.66411H13V8.9974Z" fill="#9BA1B2"/>
<path d="M11.6667 9.66406H11V10.3307H11.6667V9.66406Z" fill="#9BA1B2"/>
<path d="M3.33333 18.417V19.9974H4.00002V18.3307C4.00006 18.2742 3.9856 18.2185 3.95799 18.169L0.960333 12.773C0.768081 12.4262 0.667029 12.0363 0.666667 11.6397V5.33073C0.666667 5.15392 0.736909 4.98436 0.861935 4.85935C0.986948 4.73429 1.15652 4.66406 1.33333 4.66406C1.51015 4.66406 1.67972 4.73429 1.80474 4.85935C1.92976 4.98436 2 5.15392 2 5.33073V10.1151C1.79844 10.3493 1.68946 10.6491 1.69357 10.9581C1.69768 11.2671 1.81461 11.5639 2.02234 11.7927L4.75334 14.7974L5.24665 14.3491L2.51567 11.3441C2.41073 11.2289 2.35425 11.0778 2.35799 10.9221C2.36171 10.7663 2.42535 10.618 2.53567 10.5081C2.59432 10.4506 2.66379 10.4053 2.74007 10.3749C2.81633 10.3444 2.89789 10.3294 2.98 10.3307C3.06204 10.3328 3.1428 10.3516 3.21732 10.386C3.29184 10.4204 3.35853 10.4696 3.41335 10.5307L5.75234 13.1308C5.78208 13.1606 5.81574 13.1862 5.85235 13.2071C6.50387 13.5805 7.04544 14.119 7.42248 14.7683C7.79957 15.4178 7.99874 16.1551 8.00002 16.9061V19.9974H8.66668V16.6641H8.65866C8.61655 15.8437 8.37092 15.0464 7.94391 14.3447C7.5169 13.6429 6.92192 13.0583 6.21267 12.6437L3.90999 10.0854C3.79488 9.95644 3.6545 9.85246 3.49757 9.78001C3.34064 9.70752 3.17048 9.66805 2.99767 9.66409C2.88611 9.66259 2.77484 9.67573 2.66667 9.70308V5.33073C2.66667 4.97711 2.52619 4.63795 2.27615 4.38793C2.02609 4.1379 1.68696 3.9974 1.33333 3.9974C0.979708 3.9974 0.640576 4.1379 0.390524 4.38793C0.140476 4.63795 0 4.97711 0 5.33073V11.6397C0.0002816 12.1498 0.130244 12.6514 0.377668 13.0974L3.33333 18.417Z" fill="#9BA1B2"/>
<path d="M8.32001 16.2133V19.9893H3.62667L3.84001 18.56L3.41334 17.92L1.06667 13.44L0.426674 11.52V5.11998C0.938674 3.58398 1.92001 4.47998 2.34667 5.11998V10.0266H2.98667L3.84001 10.4533L5.97334 12.8L7.25334 13.6533L7.89334 14.9333L8.32001 16.2133Z" fill="#9BA1B2" fill-opacity="0.3"/>
<path d="M11.7333 16.2133V19.9893H16.4267L16.2133 18.56L16.64 17.92L18.9867 13.44L19.6267 11.52V5.11998C19.1147 3.58398 18.1333 4.47998 17.7067 5.11998V10.0266H17.0667L16.2133 10.4533L14.08 12.8L12.8 13.6533L12.16 14.9333L11.7333 16.2133Z" fill="#9BA1B2" fill-opacity="0.3"/>
</svg>