<svg width="20" height="20" viewBox="0 0 20 20" fill="none" xmlns="http://www.w3.org/2000/svg">
<path d="M14.3527 4.96818C14.3473 4.91906 14.2076 3.76023 12.966 3.30414C12.9645 3.30359 12.963 3.30304 12.9615 3.3025L11.3874 2.74992C11.0191 2.62062 10.6155 2.62578 10.2508 2.76429C9.79943 2.93578 9.44987 3.06199 9.24003 3.12929C9.14463 3.15988 9.04427 3.17538 8.94175 3.17538H7.44639C7.43191 3.17538 7.41739 3.17632 7.40295 3.17816C7.34575 3.18558 5.99703 3.37738 5.65764 4.89866C5.65224 4.92286 5.64948 4.94754 5.64948 4.9723V7.87918C5.64948 7.8817 5.64952 7.88417 5.64956 7.88669C5.6518 7.98765 5.72323 10.3723 7.37091 11.4629L7.37943 11.4689C7.38647 11.4739 7.39355 11.4789 7.40095 11.4839C7.49487 11.5473 7.58923 11.6162 7.68147 11.6886C8.16147 12.0655 9.06607 12.6913 9.77967 12.6913C9.78099 12.6913 9.78223 12.6913 9.78359 12.6913C9.82235 12.6956 9.89155 12.7013 9.98535 12.7013C10.3898 12.7013 11.2526 12.5953 12.1168 11.8141C12.2618 11.683 12.4249 11.5548 12.6017 11.433L12.627 11.4153C12.6352 11.4095 12.6435 11.4037 12.652 11.3979C13.2016 11.0288 14.1535 10.0763 14.3533 7.84449C14.3542 7.8345 14.3547 7.82437 14.3547 7.81429V5.0047C14.3547 4.9925 14.3539 4.98034 14.3527 4.96818Z" fill="#9BA1B2" fill-opacity="0.3"/>
<path d="M15.1516 3.01688C15.1448 2.96391 14.9864 1.82071 13.9104 1.36973C13.9416 1.16895 13.9383 0.910899 13.8109 0.659843C13.6395 0.322422 13.3014 0.102539 12.806 0.00621119C12.7847 0.0020704 12.7631 0 12.7414 0H8.20289C6.36002 0 4.86066 1.4993 4.86066 3.34227V5.12315C4.86066 5.58715 5.01882 6.03963 5.30594 6.39711C5.4483 6.57439 5.62362 6.88395 5.65006 7.35199C5.66038 7.53475 5.81334 7.67595 5.99722 7.67087C6.18018 7.66571 6.32577 7.51587 6.32577 7.33287V5.01099C6.55541 4.06139 7.33901 3.8766 7.47377 3.85164H8.94181C9.11449 3.85164 9.28429 3.82528 9.44661 3.77325C9.72577 3.68372 10.1686 3.51895 10.491 3.39649C10.7067 3.3145 10.9456 3.31149 11.1634 3.38805L12.735 3.93977C13.5208 4.22959 13.661 4.91939 13.6784 5.02775V7.81435C13.6784 7.99135 13.8148 8.13819 13.9913 8.15135C13.9999 8.15195 14.0083 8.15231 14.0168 8.15231C14.1826 8.15227 14.3258 8.03075 14.351 7.86423C14.3523 7.85551 14.4873 6.98335 14.9227 6.28507C15.0742 6.04199 15.1543 5.76483 15.1543 5.48359V3.05957C15.1543 3.04532 15.1534 3.03106 15.1516 3.01688Z" fill="#9BA1B2" fill-opacity="0.3"/>
<path d="M10.2384 19.3409L10.237 19.3394C10.2361 19.3385 10.2352 19.3376 10.2343 19.3367L10.1593 19.2618C10.1558 19.2582 10.1521 19.2548 10.1485 19.2514L6.51943 15.9316L6.87407 15.2546C6.92855 15.1506 6.92515 15.0258 6.86519 14.9248C6.80519 14.8239 6.69715 14.7614 6.57979 14.7596L5.71512 14.7462L6.59623 12.9793C6.65795 12.8555 6.63803 12.7067 6.54611 12.6035C6.45419 12.5002 6.30855 12.4633 6.17859 12.5104L1.95856 14.0372C1.16731 14.3233 0.590361 15.0169 0.452898 15.847L0.0166877 18.4811C-0.0427267 18.84 0.0581328 19.2049 0.293366 19.4823C0.528641 19.7596 0.872197 19.9188 1.23587 19.9188H10C10.137 19.9188 10.2603 19.8361 10.3125 19.7096C10.3648 19.583 10.3355 19.4374 10.2384 19.3409Z" fill="#9BA1B2" fill-opacity="0.3"/>
<path d="M19.9833 18.4811L19.5471 15.847C19.4096 15.0169 18.8327 14.3233 18.0415 14.0372L13.8214 12.5104C13.6913 12.4633 13.5458 12.5002 13.4539 12.6034C13.3619 12.7066 13.342 12.8555 13.4037 12.9793L14.2849 14.7462L13.4203 14.7596C13.3029 14.7614 13.1948 14.8239 13.1349 14.9248C13.0749 15.0258 13.0715 15.1505 13.1259 15.2546L13.4805 15.9316L9.85151 19.2514C9.84783 19.2548 9.84418 19.2583 9.84062 19.2618L9.76571 19.3367C9.65959 19.4429 9.6361 19.6063 9.70818 19.7381L9.71082 19.7429C9.77014 19.8513 9.8839 19.9187 10.0075 19.9187H18.7642C19.128 19.9187 19.4715 19.7596 19.7067 19.4822C19.9419 19.2048 20.0427 18.8399 19.9833 18.4811Z" fill="#9BA1B2" fill-opacity="0.3"/>
<path d="M9.42292 14.7597C9.27248 14.6493 9.0608 14.6816 8.95024 14.8321L8.90848 14.8889C8.79804 15.0393 8.8302 15.2507 8.98044 15.3613C9.0408 15.4059 9.11112 15.4273 9.18076 15.4273C9.2844 15.4273 9.38668 15.3798 9.45296 15.2901L9.49532 15.2325C9.60584 15.0819 9.5734 14.8703 9.42292 14.7597Z" fill="#9BA1B2"/>
<path d="M9.51117 17.9766L8.64149 16.3953L9.45345 15.2894C9.56405 15.1389 9.53157 14.9273 9.38105 14.8168C9.23053 14.7062 9.01889 14.7386 8.90837 14.8892L7.96861 16.1691C7.89069 16.2752 7.88145 16.4168 7.94485 16.5322L8.91861 18.3025V18.3025C8.98021 18.4144 9.09589 18.4777 9.21521 18.4777C9.27033 18.4777 9.32621 18.4642 9.37789 18.4358C9.54145 18.3458 9.60117 18.1403 9.51117 17.9766Z" fill="#9BA1B2"/>
<path d="M12.0314 16.1691L11.0955 14.8944C11.0179 14.7888 10.8863 14.7374 10.7577 14.7629C10.6291 14.7881 10.5267 14.8855 10.4949 15.0127C10.4705 15.1104 10.4908 15.2137 10.5504 15.2949L11.3583 16.3953L10.4946 17.9659C10.4672 18.0158 10.4528 18.0721 10.4528 18.1291C10.4528 18.2834 10.5573 18.4181 10.7068 18.4565C10.7348 18.4638 10.7631 18.4673 10.791 18.4673C10.912 18.4673 11.0267 18.4019 11.0873 18.2921L12.0551 16.5323C12.1186 16.4169 12.1093 16.2752 12.0314 16.1691Z" fill="#9BA1B2"/>
<path d="M12.5672 10.8552C12.456 10.7968 12.3215 10.8048 12.218 10.8761C12.0169 11.0147 11.8303 11.1614 11.6633 11.3124C10.7533 12.135 9.88875 12.0237 9.85487 12.0188C9.83451 12.0156 9.81375 12.0142 9.79323 12.0148C9.43359 12.024 8.78515 11.6954 8.09919 11.1566C7.99427 11.0743 7.88667 10.9958 7.77927 10.9232C7.67567 10.8532 7.54179 10.8462 7.43139 10.9049C7.32099 10.9636 7.25195 11.0784 7.25195 11.2035V12.3635C7.25195 12.4661 7.29863 12.563 7.37863 12.6272C7.38807 12.6349 7.39791 12.6419 7.40807 12.6484L9.80579 14.2506C9.80619 14.2508 9.80651 14.2511 9.80691 14.2514L9.81323 14.2556C9.86967 14.293 9.93471 14.3118 9.99999 14.3118C10.0549 14.3118 10.1098 14.2985 10.16 14.2717C10.1706 14.266 10.1808 14.2598 10.1905 14.2532C10.1917 14.2524 10.1928 14.2517 10.194 14.2509C10.1953 14.25 10.1966 14.2491 10.1979 14.2482L12.59 12.6498C12.5996 12.6437 12.609 12.6372 12.618 12.6301C12.7001 12.5661 12.7481 12.4678 12.7481 12.3636V11.1546C12.7481 11.0289 12.6784 10.9137 12.5672 10.8552ZM12.0717 12.1826L9.99995 13.567L7.92823 12.1826V11.875C8.43271 12.2416 9.17475 12.6913 9.77963 12.6913C9.78091 12.6913 9.78231 12.6913 9.78359 12.6913C9.98667 12.7137 11.0223 12.7748 12.0718 11.8542V12.1826H12.0717Z" fill="#9BA1B2"/>
<path d="M10.3335 13.9181C10.3112 13.784 10.2107 13.6763 10.0784 13.6447C9.94612 13.6134 9.80792 13.664 9.72744 13.7736L8.9502 14.8322C8.83964 14.9827 8.87208 15.1944 9.02268 15.3049C9.08292 15.3492 9.153 15.3705 9.22252 15.3705C9.32648 15.3705 9.42908 15.3227 9.4954 15.2324L10.2686 14.1793C10.3126 14.1219 10.3382 14.0503 10.3382 13.9738C10.3381 13.9552 10.3366 13.9365 10.3335 13.9181Z" fill="#9BA1B2"/>
<path d="M15.1516 3.01688C15.1448 2.96391 14.9864 1.82071 13.9104 1.36973C13.9416 1.16895 13.9383 0.910899 13.8109 0.659843C13.6395 0.322422 13.3014 0.102539 12.806 0.00621119C12.7847 0.0020704 12.7631 0 12.7414 0H8.20289C6.36002 0 4.86066 1.4993 4.86066 3.34227V5.12315C4.86066 5.58715 5.01882 6.03963 5.30594 6.39711C5.4483 6.57439 5.62362 6.88395 5.65006 7.35199C5.66038 7.53475 5.81334 7.67595 5.99722 7.67087C6.18018 7.66571 6.32577 7.51587 6.32577 7.33287V5.01099C6.55541 4.06139 7.33901 3.8766 7.47377 3.85164H8.94181C9.11449 3.85164 9.28429 3.82528 9.44661 3.77325C9.72577 3.68372 10.1686 3.51895 10.491 3.39649C10.7067 3.3145 10.9456 3.31149 11.1634 3.38805L12.735 3.93977C13.5208 4.22959 13.661 4.91939 13.6784 5.02775V7.81435C13.6784 7.99135 13.8148 8.13819 13.9913 8.15135C13.9999 8.15195 14.0083 8.15231 14.0168 8.15231C14.1826 8.15227 14.3258 8.03075 14.351 7.86423C14.3523 7.85551 14.4873 6.98335 14.9227 6.28507C15.0742 6.04199 15.1543 5.76483 15.1543 5.48359V3.05957C15.1543 3.04532 15.1534 3.03106 15.1516 3.01688ZM14.478 5.48343C14.478 5.63451 14.4353 5.78435 14.3546 5.91759V5.00463C14.3546 4.99239 14.354 4.98023 14.3526 4.96807C14.3473 4.91899 14.2076 3.76016 12.966 3.30406C12.9645 3.30352 12.9629 3.30297 12.9614 3.30242L11.3874 2.74984C11.2099 2.68754 11.0243 2.65645 10.8387 2.65645C10.6392 2.65645 10.4398 2.69242 10.2509 2.7643C9.79941 2.93578 9.44985 3.062 9.24005 3.12926C9.14461 3.15985 9.04425 3.17539 8.94177 3.17539H7.44641C7.43193 3.17539 7.41737 3.17633 7.40297 3.17817C7.34573 3.18559 5.99706 3.37739 5.65762 4.89867C5.65222 4.92287 5.6495 4.94755 5.6495 4.97231V5.66823C5.57586 5.49807 5.5369 5.31223 5.5369 5.12319V3.34235C5.5369 1.87235 6.73285 0.676367 8.20281 0.676367H12.7073C12.8938 0.716095 13.1204 0.797619 13.2064 0.963479C13.3117 1.16649 13.1918 1.44602 13.1916 1.44625C13.1484 1.53824 13.1489 1.64477 13.1929 1.73637C13.2368 1.82797 13.3197 1.89493 13.4186 1.91871C14.2794 2.12594 14.455 2.9516 14.4779 3.08516V5.48343H14.478Z" fill="#9BA1B2"/>
<path d="M14.3527 4.96818C14.3473 4.91906 14.2076 3.76023 12.966 3.30414C12.9645 3.30359 12.963 3.30304 12.9615 3.3025L11.3874 2.74992C11.0191 2.62062 10.6155 2.62578 10.2508 2.76429C9.79943 2.93578 9.44987 3.06199 9.24003 3.12929C9.14463 3.15988 9.04427 3.17538 8.94175 3.17538H7.44639C7.43191 3.17538 7.41739 3.17632 7.40295 3.17816C7.34575 3.18558 5.99703 3.37738 5.65764 4.89866C5.65224 4.92286 5.64948 4.94754 5.64948 4.9723V7.87918C5.64948 7.8817 5.64952 7.88417 5.64956 7.88669C5.6518 7.98765 5.72323 10.3723 7.37091 11.4629L7.37943 11.4689C7.38647 11.4739 7.39355 11.4789 7.40095 11.4839C7.49487 11.5473 7.58923 11.6162 7.68147 11.6886C8.16147 12.0655 9.06607 12.6913 9.77967 12.6913C9.78099 12.6913 9.78223 12.6913 9.78359 12.6913C9.82235 12.6956 9.89155 12.7013 9.98535 12.7013C10.3898 12.7013 11.2526 12.5953 12.1168 11.8141C12.2618 11.683 12.4249 11.5548 12.6017 11.433L12.627 11.4153C12.6352 11.4095 12.6435 11.4037 12.652 11.3979C13.2016 11.0288 14.1535 10.0763 14.3533 7.84449C14.3542 7.8345 14.3547 7.82437 14.3547 7.81429V5.0047C14.3547 4.9925 14.3539 4.98034 14.3527 4.96818ZM13.6783 7.79902C13.4941 9.81317 12.6359 10.594 12.2749 10.8365C12.2621 10.8451 12.2494 10.854 12.2368 10.8629L12.218 10.8761C12.0169 11.0147 11.8302 11.1615 11.6633 11.3123C10.7567 12.132 9.89491 12.0245 9.85267 12.0185C9.83303 12.0156 9.81311 12.0143 9.79323 12.0149C9.43355 12.0241 8.78511 11.6955 8.09915 11.1567C7.99423 11.0743 7.88663 10.9958 7.77939 10.9234L7.77107 10.9175C7.76295 10.9118 7.75483 10.906 7.74531 10.8997C6.41571 10.0197 6.32871 7.96022 6.32579 7.8743V5.01102C6.55619 4.05798 7.34467 3.87527 7.47319 3.85168H8.94179C9.11451 3.85168 9.28431 3.82531 9.44659 3.77328C9.72575 3.68374 10.1686 3.51898 10.491 3.39652C10.7067 3.31452 10.9455 3.31152 11.1634 3.38808L12.7351 3.9398C13.5207 4.22966 13.661 4.91942 13.6784 5.02778L13.6783 7.79902Z" fill="#9BA1B2"/>
<path d="M10.3024 13.8226C10.2497 13.7172 10.1459 13.6469 10.0285 13.6369C9.91135 13.6272 9.79707 13.6787 9.72735 13.7737L8.91735 14.8769C8.80691 15.0274 8.83919 15.2389 8.98951 15.3495C9.04983 15.3938 9.12003 15.4153 9.18959 15.4153C9.29335 15.4153 9.39579 15.3677 9.46207 15.2777L10.2721 14.1786C10.3149 14.1204 10.3381 14.0461 10.3381 13.9739C10.3381 13.9215 10.3258 13.8696 10.3024 13.8226Z" fill="#9BA1B2"/>
<path d="M10.3242 19.2671C10.1971 19.1342 9.98725 19.1272 9.85161 19.2513L9.77433 19.322C9.65857 19.4278 9.63081 19.5993 9.70729 19.7363L9.70965 19.7406C9.76129 19.8331 9.85341 19.8961 9.95837 19.9107C9.97393 19.9128 9.98945 19.9139 10.0049 19.9139C10.094 19.9139 10.1802 19.8787 10.244 19.8148L10.3189 19.7398C10.4489 19.6099 10.4512 19.3999 10.3242 19.2671Z" fill="#9BA1B2"/>
<path d="M10.2258 19.322L10.1484 19.2513C10.0128 19.1272 9.80292 19.1343 9.67588 19.2671C9.5488 19.4 9.55116 19.61 9.68116 19.7399L9.75616 19.8149C9.82 19.8788 9.9062 19.9139 9.9952 19.9139C10.0111 19.9139 10.0271 19.9129 10.043 19.9105C10.1484 19.8955 10.2405 19.8317 10.2917 19.7384L10.2941 19.7342C10.369 19.5975 10.3408 19.4272 10.2258 19.322Z" fill="#9BA1B2"/>
<path d="M10.2315 19.3272L10.231 19.3268C10.1788 19.278 10.1113 19.2458 10.0368 19.2376C9.93718 19.2268 9.8401 19.2605 9.76954 19.3263L9.7685 19.3272C9.70014 19.3896 9.66034 19.4772 9.65834 19.5698C9.65638 19.6623 9.69238 19.7516 9.75798 19.8168L9.76154 19.8204C9.8275 19.886 9.9137 19.9187 9.99994 19.9187C10.0865 19.9187 10.1731 19.8857 10.239 19.8198L10.2426 19.8162C10.3079 19.7508 10.3437 19.6616 10.3415 19.5693C10.3395 19.4769 10.2997 19.3895 10.2315 19.3272Z" fill="#9BA1B2"/>
<path d="M10.1097 13.6465C9.96966 13.6016 9.81602 13.6536 9.73074 13.7735C9.63534 13.9079 9.6511 14.0909 9.7673 14.2076C9.8327 14.2733 9.9195 14.307 10.0069 14.307C10.0749 14.307 10.1431 14.2867 10.2021 14.2452C10.2921 14.1819 10.3456 14.0787 10.3456 13.9687V13.9679C10.3456 13.8207 10.2499 13.6912 10.1097 13.6465Z" fill="#9BA1B2"/>
<path d="M10.2747 13.7708L10.2718 13.7669C10.1851 13.6495 10.0328 13.6011 9.89412 13.6468C9.75548 13.6924 9.6618 13.822 9.6618 13.9679V13.9737C9.6618 14.0982 9.73168 14.2116 9.84136 14.2706C9.89104 14.2972 9.94592 14.3104 10.0007 14.3104C10.0667 14.3104 10.1327 14.2913 10.1894 14.2537C10.2667 14.2025 10.3196 14.1218 10.3358 14.0305C10.3519 13.9393 10.3298 13.8453 10.2747 13.7708Z" fill="#9BA1B2"/>
<path d="M14.0227 12.7085C13.9876 12.6159 13.9138 12.5433 13.8206 12.51L12.524 12.0452C12.5135 12.0414 12.5026 12.0381 12.4918 12.0354C12.3992 12.0123 12.3012 12.0293 12.2219 12.0823L9.8196 13.6876C9.819 13.688 9.81828 13.6884 9.81764 13.6889L10.0062 13.9694L9.8134 13.6917C9.74292 13.7383 9.69248 13.8098 9.672 13.8917C9.66076 13.9367 9.65892 13.9837 9.66652 14.0295C9.67524 14.0817 9.69608 14.1313 9.72752 14.174L11.4863 16.5694C11.5502 16.6565 11.6516 16.7074 11.7588 16.7074C11.7661 16.7074 11.7735 16.7072 11.7809 16.7066C11.8961 16.6991 11.9995 16.6334 12.0551 16.5322L14.0027 12.9912C14.0504 12.9044 14.0578 12.8011 14.0227 12.7085ZM11.7178 15.7421L10.4817 14.0585L12.456 12.7392L13.219 13.0128L11.7178 15.7421Z" fill="#9BA1B2"/>
<path d="M10.3331 13.9155C10.3172 13.8247 10.265 13.7443 10.1884 13.693L7.77814 12.0824C7.70142 12.031 7.60686 12.0135 7.51674 12.0335C7.5029 12.0365 7.4893 12.0405 7.47598 12.0453L6.17946 12.51C6.08626 12.5434 6.01238 12.616 5.97734 12.7086C5.9423 12.8012 5.94958 12.9045 5.9973 12.9913L7.94486 16.5322C8.0005 16.6334 8.1039 16.6992 8.21906 16.7067C8.22642 16.7072 8.23382 16.7074 8.24114 16.7074C8.34834 16.7074 8.4497 16.6565 8.51374 16.5694L9.45349 15.2895C9.45421 15.2885 9.45497 15.2874 9.45569 15.2864L10.2725 14.1738C10.3271 14.0995 10.349 14.0062 10.3331 13.9155ZM8.90842 14.8891C8.90758 14.8902 8.90681 14.8912 8.90597 14.8924L8.28206 15.7422L6.78086 13.0128L7.54394 12.7393L9.51817 14.0586L8.90842 14.8891Z" fill="#9BA1B2"/>
<path d="M19.9833 18.4811L19.5471 15.847C19.4096 15.0169 18.8327 14.3233 18.0415 14.0372L13.8214 12.5104C13.6913 12.4633 13.5458 12.5002 13.4539 12.6034C13.3619 12.7066 13.342 12.8555 13.4037 12.9793L14.2849 14.7462L13.4203 14.7596C13.3029 14.7614 13.1948 14.8239 13.1349 14.9248C13.0749 15.0258 13.0715 15.1505 13.1259 15.2546L13.4805 15.9316L9.85151 19.2514C9.84783 19.2548 9.84418 19.2583 9.84062 19.2618L9.76571 19.3367C9.65959 19.4429 9.6361 19.6063 9.70818 19.7381L9.71082 19.7429C9.77014 19.8513 9.8839 19.9187 10.0075 19.9187H18.7642C19.128 19.9187 19.4715 19.7596 19.7067 19.4822C19.9419 19.2048 20.0427 18.8399 19.9833 18.4811ZM19.191 19.0448C19.0844 19.1704 18.9289 19.2425 18.7642 19.2425H10.8632L14.1293 16.2548C14.2425 16.1513 14.2719 15.9844 14.2006 15.8484L13.98 15.4272L14.8325 15.4141C14.9487 15.4124 15.0558 15.351 15.1163 15.2517C15.1766 15.1524 15.1818 15.0291 15.13 14.9251L14.3863 13.4338L17.8116 14.673C18.3731 14.8762 18.7825 15.3683 18.8801 15.9574L19.3163 18.5915C19.3163 18.5916 19.3163 18.5916 19.3163 18.5916C19.3431 18.754 19.2975 18.9192 19.191 19.0448Z" fill="#9BA1B2"/>
<path d="M10.2345 19.3299L10.2305 19.3264C10.0967 19.2052 9.89114 19.2106 9.76378 19.3386L9.76026 19.3422C9.66398 19.439 9.63542 19.5844 9.68786 19.7104C9.7403 19.8366 9.8635 19.9187 10.0001 19.9187H10.0075C10.1473 19.9187 10.2727 19.8326 10.3229 19.7022C10.3733 19.5717 10.3381 19.4237 10.2345 19.3299Z" fill="#9BA1B2"/>
<path d="M10.2238 19.3202C10.147 19.2511 10.0429 19.2208 9.94095 19.2382C9.83911 19.2554 9.75075 19.3183 9.70107 19.4089L9.69871 19.4131C9.62743 19.5431 9.64911 19.7044 9.75219 19.8109L9.75339 19.8122C9.81967 19.8807 9.90795 19.9152 9.99647 19.9152C10.0779 19.9152 10.1596 19.8859 10.2243 19.8268L10.2278 19.8236C10.2585 19.7956 10.2838 19.7621 10.3024 19.7249C10.3705 19.5889 10.3368 19.4219 10.2238 19.3202Z" fill="#9BA1B2"/>
<path d="M10.2384 19.3408L10.237 19.3393C10.2361 19.3385 10.2352 19.3375 10.2343 19.3367L10.1593 19.2617C10.1558 19.2582 10.1521 19.2547 10.1485 19.2514L6.51943 15.9316L6.87407 15.2545C6.92855 15.1506 6.92515 15.0257 6.86519 14.9248C6.80519 14.8239 6.69715 14.7614 6.57979 14.7595L5.71512 14.7462L6.59623 12.9792C6.65795 12.8555 6.63803 12.7066 6.54611 12.6034C6.45419 12.5002 6.30855 12.4632 6.17859 12.5103L1.95856 14.0372C1.16731 14.3233 0.590361 15.0168 0.452898 15.847L0.0166877 18.4811C-0.0427267 18.84 0.0581328 19.2048 0.293366 19.4822C0.528641 19.7596 0.872197 19.9187 1.23587 19.9187H10C10.137 19.9187 10.2603 19.8361 10.3125 19.7095C10.3648 19.5829 10.3355 19.4373 10.2384 19.3408ZM1.23591 19.2425C1.07122 19.2425 0.915673 19.1704 0.809189 19.0448C0.702705 18.9192 0.657077 18.754 0.683953 18.5915L1.12016 15.9574C1.2177 15.3682 1.62712 14.8761 2.18864 14.673L5.61384 13.4338L4.87024 14.925C4.81836 15.029 4.82352 15.1523 4.88396 15.2516C4.94432 15.3509 5.05148 15.4122 5.16768 15.414L6.02024 15.4272L5.79964 15.8484C5.7284 15.9843 5.75772 16.1512 5.87092 16.2548L9.13695 19.2425H1.23591Z" fill="#9BA1B2"/>
<path d="M11.1509 15.1765C11.1753 15.0788 11.155 14.9754 11.0954 14.8943L10.2725 13.7736C10.1861 13.6558 10.0335 13.609 9.89475 13.6545C9.81979 13.6791 9.75803 13.7287 9.71691 13.7921L8.90907 14.8882C8.89751 14.9038 8.88723 14.9206 8.87851 14.9381C8.82319 15.0488 8.83275 15.1809 8.90343 15.2825L9.24747 15.7766L8.88099 18.0866C8.86923 18.1608 8.88251 18.2367 8.91867 18.3025L9.70375 19.7299C9.76319 19.838 9.87675 19.9051 10 19.9051C10.1234 19.9051 10.2369 19.838 10.2963 19.7299L11.0873 18.292C11.1147 18.242 11.1291 18.186 11.1291 18.129C11.1291 18.1112 11.1277 18.0934 11.1249 18.0758L10.7601 15.7766L11.1004 15.288C11.1238 15.2542 11.141 15.2163 11.1509 15.1765ZM10 18.8654L9.56703 18.0781L9.93671 15.7481C9.95043 15.6618 9.93015 15.5736 9.88023 15.5019L9.59687 15.0949L10.001 14.5466L10.4073 15.0998L10.1273 15.5019C10.0774 15.5735 10.0571 15.6618 10.0708 15.7481L10.4388 18.0675L10 18.8654Z" fill="#9BA1B2"/>
</svg>